<?xml version="1.0" standalone="no"?>
<!DOCTYPE svg PUBLIC "-//W3C//DTD SVG 20010904//EN"
 "http://www.w3.org/TR/2001/REC-SVG-20010904/DTD/svg10.dtd">
<svg version="1.0" xmlns="http://www.w3.org/2000/svg"
 width="250.000000pt" height="250.000000pt" viewBox="0 0 250.000000 250.000000"
 preserveAspectRatio="xMidYMid meet">
<metadata>
Created by potrace 1.11, written by Peter Selinger 2001-2013
</metadata>
<g transform="translate(0.000000,250.000000) scale(0.100000,-0.100000)"
fill="#000000" stroke="none">
<path d="M1541 2459 c171 -132 292 -294 359 -478 30 -81 28 -98 -5 -61 -45 50
-289 54 -430 6 -153 -52 -289 -171 -335 -293 -30 -80 -28 -198 5 -266 24 -52
79 -116 90 -105 3 3 1 17 -5 32 -13 35 -13 130 0 177 28 99 138 200 265 241
82 26 216 30 305 9 118 -29 289 -125 348 -197 l30 -36 11 64 c15 89 14 272 -3
360 -33 173 -110 342 -223 493 l-68 90 -199 3 -198 2 53 -41z"/>
<path d="M2216 2488 c4 -7 15 -24 25 -38 9 -14 37 -66 62 -115 217 -435 186
-931 -78 -1270 -40 -51 -51 -61 -57 -47 -4 9 -19 48 -34 87 -42 108 -91 184
-169 261 -83 82 -201 147 -300 165 -133 24 -276 -19 -354 -107 -41 -47 -77
-133 -67 -159 4 -11 -2 -15 -22 -15 -50 0 -101 20 -151 60 -108 85 -150 260
-102 417 54 178 198 326 400 412 52 22 80 23 139 5 25 -8 -84 91 -144 131
-364 242 -856 242 -1288 1 -37 -21 -69 -43 -72 -50 -2 -6 -3 -80 -2 -163 l3
-150 90 65 c272 197 590 268 893 200 58 -13 57 -19 -6 -37 -35 -10 -51 -23
-87 -73 -182 -246 -192 -561 -24 -743 55 -60 109 -90 186 -106 52 -11 70 -10
117 3 31 8 56 12 56 8 0 -15 -74 -73 -118 -92 -93 -41 -221 -30 -322 29 -57
33 -138 116 -174 177 -72 124 -107 298 -87 441 10 71 15 84 49 118 l37 39 -35
-7 c-170 -34 -399 -186 -531 -351 l-49 -62 0 -761 0 -761 129 0 129 0 -44 74
c-97 162 -164 368 -184 570 -24 239 32 494 152 693 34 57 147 197 154 191 2
-2 -1 -20 -6 -40 -13 -44 12 -117 74 -222 153 -257 438 -375 660 -273 88 41
146 110 171 207 11 42 14 45 41 42 47 -5 130 -50 165 -89 84 -96 111 -246 70
-382 -60 -197 -222 -355 -441 -431 l-81 -28 47 -40 c99 -84 252 -160 412 -204
108 -30 427 -32 547 -4 163 38 323 103 448 181 l57 37 0 165 0 165 -41 -34
c-188 -153 -382 -244 -592 -278 -82 -13 -235 -13 -313 1 l-63 11 59 69 c66 79
118 173 151 274 34 101 33 273 -1 360 -31 81 -58 122 -117 176 -85 79 -201
107 -313 74 -22 -7 -21 -3 15 34 85 89 234 106 370 43 129 -61 237 -204 280
-372 21 -80 22 -261 2 -343 -8 -32 -10 -57 -5 -57 5 0 43 14 85 31 157 66 325
200 436 347 l47 64 0 744 0 744 -146 0 c-113 0 -144 -3 -138 -12z"/>
<path d="M1255 1220 c4 -14 9 -58 12 -98 5 -67 3 -78 -26 -137 -51 -103 -161
-186 -282 -214 -65 -15 -205 -13 -279 5 -135 31 -352 167 -362 226 -3 18 -7
14 -18 -22 -10 -32 -15 -94 -14 -210 0 -137 4 -179 22 -249 41 -158 132 -339
235 -468 l42 -52 194 -1 c107 0 192 2 190 4 -2 2 -31 25 -64 51 -149 119 -278
295 -334 457 l-19 54 52 -13 c292 -76 615 46 729 277 30 60 32 72 32 165 0 90
-3 104 -27 145 -14 25 -41 59 -59 75 -32 30 -32 30 -24 5z"/>
</g>
</svg>
